<?xml version="1.0" encoding="UTF-8" standalone="no"?>
<!DOCTYPE svg PUBLIC "-//W3C//DTD SVG 1.1//EN" "http://www.w3.org/Graphics/SVG/1.1/DTD/svg11.dtd">
<svg width="100%" height="100%" viewBox="0 0 1425 1425" version="1.1" xmlns="http://www.w3.org/2000/svg" xmlns:xlink="http://www.w3.org/1999/xlink" xml:space="preserve" xmlns:serif="http://www.serif.com/" style="fill-rule:evenodd;clip-rule:evenodd;stroke-linejoin:round;stroke-miterlimit:2;">
    <g transform="matrix(1,0,0,1,-1425,-1425)">
        <g id="Artboard1" transform="matrix(1,0,0,1,1425,1425)">
            <rect x="0" y="0" width="1425" height="1425" style="fill:none;"/>
            <g transform="matrix(1,0,0,1,13.0382,-195.555)">
                <g>
                    <g transform="matrix(0.601865,0,0,0.601865,218.544,465.674)">
                        <g transform="matrix(1,0,0,1.09753,9.96902,-75.2861)">
                            <path d="M192.928,814.862L196.15,809.451L199.371,809.451C203.861,809.663 207.863,809.822 211.377,809.928C214.891,810.035 217.917,810.088 220.455,810.088C227.483,810.088 232.607,809.292 235.829,807.7C239.05,806.109 241.588,802.714 243.442,797.515C245.297,792.316 247.688,784.412 250.617,773.802C253.35,764.465 255.79,754.916 257.938,745.155C260.085,735.394 262.037,725.951 263.794,716.826C262.428,717.038 260.866,717.144 259.109,717.144C257.352,717.144 255.888,717.251 254.716,717.463L251.495,717.463C249.153,717.463 247.981,717.144 247.981,716.508C247.981,715.447 249.299,714.227 251.935,712.847C254.57,711.468 256.669,710.566 258.23,710.142C259.011,709.717 260.036,709.505 261.305,709.505C262.574,709.505 263.892,709.399 265.259,709.187C267.406,697.516 269.163,687.012 270.53,677.675C271.896,668.339 272.775,661.23 273.165,656.349C273.36,654.44 273.604,652.212 273.897,649.665C274.19,647.119 274.336,644.466 274.336,641.708C274.336,637.464 273.751,633.644 272.579,630.249C271.408,626.854 268.968,624.838 265.259,624.201C263.697,623.777 261.159,623.512 257.645,623.406C254.131,623.299 250.47,623.193 246.664,623.087C242.857,622.981 239.587,622.928 236.854,622.928L229.826,622.928L232.754,617.835L237.439,617.517C247.2,617.517 256.669,617.729 265.844,618.154C275.02,618.578 283.805,618.79 292.199,618.79C306.841,618.79 320.36,618.631 332.757,618.313C345.154,617.994 358.575,617.411 373.022,616.562C378.097,616.138 381.66,616.827 383.71,618.631C385.76,620.435 386.785,623.459 386.785,627.703C386.785,630.249 386.492,633.326 385.906,636.933C384.735,643.724 383.954,649.559 383.564,654.44C383.173,659.32 382.49,665.368 381.514,672.583C381.514,673.219 381.367,674.599 381.075,676.721C380.782,678.843 380.635,679.904 380.635,679.904L376.536,677.039C376.536,677.039 376.633,676.137 376.829,674.333C377.024,672.53 377.219,671.416 377.414,670.991C377.609,669.294 377.756,667.755 377.853,666.376C377.951,664.997 378,663.564 378,662.079C378,651.044 375.755,642.769 371.265,637.252C366.775,631.734 361.015,628.976 353.987,628.976C344.421,629.188 336.222,629.559 329.389,630.09C322.556,630.62 316.944,632.318 312.551,635.183C308.159,638.047 304.986,643.087 303.034,650.302C301.668,654.758 299.911,662.185 297.763,672.583C295.616,682.98 293.273,694.439 290.735,706.959C296.397,706.535 302.546,706.163 309.184,705.845C315.821,705.527 322.752,705.155 329.975,704.731C334.465,704.519 339.199,704.041 344.177,703.298C349.156,702.556 353.646,701.654 357.648,700.593C361.65,699.532 364.139,698.577 365.115,697.728C366.091,697.092 366.628,696.986 366.726,697.41C366.823,697.834 366.579,698.577 365.994,699.638C364.627,702.821 361.992,705.739 358.087,708.391C354.183,711.044 350.961,713.113 348.424,714.598C345.886,715.871 343.25,716.667 340.517,716.985C337.784,717.304 335.051,717.463 332.318,717.463C321.776,717.463 313.137,717.357 306.402,717.144C299.667,716.932 293.859,716.72 288.978,716.508C286.44,729.876 284.244,743.033 282.389,755.977C280.535,768.921 279.607,779.425 279.607,787.488C279.607,788.974 279.656,790.353 279.754,791.626C279.851,792.9 279.998,794.067 280.193,795.128C280.974,800.433 282.682,804.04 285.318,805.95C287.953,807.86 290.149,809.027 291.906,809.451C293.468,809.663 295.811,809.875 298.935,810.088C302.058,810.3 305.182,810.406 308.305,810.406C310.062,810.406 311.819,810.353 313.576,810.247C315.333,810.141 316.895,810.088 318.262,810.088L324.118,809.769L321.19,814.862L317.09,814.862C310.843,814.438 303.278,814.119 294.396,813.907C285.513,813.695 276.874,813.589 268.48,813.589L256.327,813.589C252.52,813.589 249.055,813.695 245.931,813.907C241.832,814.119 235.194,814.385 226.019,814.703C216.843,815.021 207.668,815.074 198.492,814.862L192.928,814.862Z" style="fill:rgb(10,45,51);fill-rule:nonzero;"/>
                        </g>
                        <g transform="matrix(1,0,0,1,1.6615,1.54337)">
                            <path d="M396.448,817.409C389.03,817.409 381.856,816.188 374.925,813.748C367.995,811.308 363.163,807.011 360.43,800.857C358.478,796.401 357.501,790.141 357.501,782.077C357.501,774.65 358.185,766.693 359.551,758.205C360.918,749.717 362.626,741.441 364.676,733.378C366.726,725.314 368.629,718.63 370.386,713.325C372.924,705.898 376.926,698.895 382.392,692.317C387.859,685.739 395.082,680.54 404.062,676.721C407.381,675.235 411.725,673.962 417.093,672.901C422.462,671.84 427.977,671.309 433.638,671.309C441.252,671.309 448.475,672.53 455.308,674.97C462.141,677.41 467.022,681.813 469.95,688.179C471.902,692.423 472.878,698.471 472.878,706.322C472.878,713.537 472.146,721.495 470.682,730.195C469.218,738.895 467.51,747.224 465.557,755.181C463.605,763.139 461.653,769.876 459.701,775.393C457.163,782.608 453.161,789.557 447.695,796.242C442.228,802.926 435.005,808.178 426.025,811.997C422.706,813.483 418.362,814.756 412.994,815.817C407.625,816.878 402.11,817.409 396.448,817.409ZM400.841,810.088C405.331,810.088 410.797,808.496 417.24,805.313C422.901,802.342 427.44,797.568 430.857,790.99C434.273,784.412 436.957,777.197 438.909,769.345C440.862,761.494 442.423,754.385 443.595,748.019C444.571,742.714 445.449,736.879 446.23,730.513C447.011,724.147 447.402,717.887 447.402,711.733C447.402,702.821 446.133,695.129 443.595,688.657C441.057,682.185 436.274,678.949 429.246,678.949C424.951,678.949 419.582,680.54 413.14,683.723C407.674,686.482 403.184,691.203 399.67,697.887C396.156,704.572 393.422,711.786 391.47,719.532C389.518,727.277 387.956,734.333 386.785,740.699C385.809,746.004 384.881,751.892 384.003,758.364C383.124,764.836 382.685,771.149 382.685,777.303C382.685,786.215 383.954,793.907 386.492,800.38C389.03,806.852 393.813,810.088 400.841,810.088Z" style="fill:rgb(10,45,51);fill-rule:nonzero;"/>
                        </g>
                        <g transform="matrix(1,0,0,1,3.5077,1.7534)">
                            <path d="M488.984,811.043C490.741,802.555 488.585,786.408 491.416,774.419C494.247,762.43 495.215,763.768 496.839,750.856C498.87,734.697 521.973,689.858 534.66,685.525C538.174,682.129 549.994,681.032 556.826,678.91C563.659,676.788 571.108,674.476 579.375,673.977C587.838,673.465 590.963,672.878 598.403,671.43C606.085,669.936 609.721,663.882 613.916,660.347C618.398,656.571 602.604,688.338 595.576,689.293C588.548,690.248 581.227,691.362 573.613,692.635C566,693.909 558.825,695.5 552.09,697.41C545.355,699.32 539.84,701.442 535.545,703.776C531.836,705.898 528.126,710.142 524.417,716.508C520.708,722.874 516.901,732.741 512.997,746.11C509.092,759.478 506.556,782.818 502.066,806.16L488.984,811.043ZM464.386,822.183C466.924,810.3 469.852,797.727 473.171,784.465C476.49,771.202 479.516,758.523 482.249,746.428C484.592,736.455 486.495,727.277 487.959,718.895C489.423,710.513 490.156,703.67 490.156,698.365L490.156,695.341C490.156,694.386 490.058,693.484 489.863,692.635C489.082,692.848 488.252,693.219 487.374,693.75C486.495,694.28 485.568,694.757 484.592,695.182L474.342,700.911L473.464,695.818C479.711,692.211 486.593,687.755 494.109,682.45C501.625,677.145 507.921,672.583 512.997,668.763C514.363,671.097 515.046,674.917 515.046,680.222C515.046,685.951 514.363,693.007 512.997,701.389C511.63,709.771 509.873,718.736 507.726,728.285C504.797,742.078 501.576,761.333 498.062,776.081C494.548,790.828 491.522,799.159 488.984,811.043L464.386,822.183Z" style="fill:rgb(10,45,51);fill-rule:nonzero;"/>
                        </g>
                    </g>
                    <g transform="matrix(0.601865,0,0,0.645404,425.255,435.796)">
                        <g transform="matrix(1,0,0,1,0,-4.63939)">
                            <path d="M218.405,814.862C217.819,814.862 217.526,814.544 217.526,813.907C217.526,813.058 218.015,812.05 218.991,810.883C219.967,809.716 220.845,809.239 221.626,809.451C224.554,809.451 227.336,809.504 229.972,809.61C232.607,809.716 234.999,809.769 237.146,809.769C244.174,809.769 249.689,809.398 253.692,808.655C257.694,807.913 260.817,806.321 263.062,803.881C265.307,801.441 267.211,797.78 268.773,792.9C270.334,788.019 272.091,781.547 274.044,773.483C278.924,754.385 283.268,735.022 287.075,715.394C290.882,695.765 294.347,676.19 297.47,656.668C297.861,654.334 298.202,652.105 298.495,649.983C298.788,647.861 298.935,646.058 298.935,644.572C298.935,639.055 297.324,635.448 294.103,633.75C290.882,632.053 285.269,631.204 277.265,631.204C265.551,631.204 255.888,635.289 248.274,643.458C240.66,651.628 240.254,665.236 230.609,668.973C217.223,674.16 187.9,668.379 187.9,668.379L191.777,664.754C191.777,664.754 208.271,665.941 217.711,661.779C227.377,657.517 243.198,623.246 245.931,620.063C248.665,616.88 252.667,615.501 257.938,615.926C265.356,616.562 274.776,617.252 286.196,617.994C297.617,618.737 309.574,619.108 322.068,619.108C329.096,619.108 335.392,619.002 340.956,618.79C346.52,618.578 352.23,618.26 358.087,617.835C363.944,617.411 370.972,616.987 379.171,616.562C384.247,616.138 387.761,616.827 389.713,618.631C391.665,620.435 392.642,623.459 392.642,627.703C392.642,630.249 392.349,633.326 391.763,636.933C390.982,641.814 390.348,646.164 389.86,649.983C389.372,653.803 388.981,657.729 388.688,661.761C388.395,665.792 387.859,670.673 387.078,676.402C386.883,677.675 386.199,678.312 385.028,678.312C384.442,678.312 383.905,677.888 383.417,677.039C382.929,676.19 382.783,675.023 382.978,673.538C383.564,669.294 383.857,665.58 383.857,662.397C383.857,651.787 381.611,644.413 377.121,640.275C372.631,636.137 366.775,634.069 359.551,634.069C350.181,634.069 343.25,635.236 338.76,637.57C334.27,639.904 331.244,642.397 329.682,645.05C328.12,647.702 326.754,649.771 325.582,651.257C324.997,652.105 324.021,655.501 322.654,661.442C321.288,667.384 319.726,674.917 317.969,684.041C316.212,693.166 314.455,702.821 312.698,713.007C310.941,723.192 309.281,733.059 307.72,742.608C306.158,752.157 304.889,760.327 303.913,767.117C302.937,773.908 302.449,778.364 302.449,780.486C302.449,781.759 302.351,783.404 302.156,785.42C301.96,787.435 301.863,789.61 301.863,791.945C301.863,795.552 302.351,798.947 303.327,802.13C304.303,805.313 306.451,807.223 309.769,807.86C311.331,808.072 314.015,808.284 317.822,808.496C321.629,808.708 325.924,808.921 330.707,809.133C335.49,809.345 340.029,809.451 344.324,809.451C348.619,809.451 351.84,809.345 353.987,809.133C354.964,809.133 355.452,809.557 355.452,810.406C355.452,811.255 354.964,812.21 353.987,813.271C353.011,814.332 352.035,814.862 351.059,814.862C345.983,814.862 339.541,814.756 331.732,814.544C323.923,814.332 315.772,814.119 307.28,813.907C298.788,813.695 290.93,813.589 283.707,813.589L276.24,813.589C273.8,813.589 271.603,813.695 269.651,813.907C266.918,813.907 262.721,814.013 257.059,814.226C251.398,814.438 245.151,814.597 238.318,814.703C231.485,814.809 224.945,814.862 218.698,814.862L218.405,814.862Z" style="fill:rgb(10,45,51);fill-rule:nonzero;"/>
                        </g>
                        <g transform="matrix(1,0,0,1,4.98451,-11.9603)">
                            <path d="M490.086,647.24L486.572,643.739C487.743,638.646 488.329,634.084 488.329,630.052C488.329,623.474 486.865,618.381 483.936,614.774C481.008,611.167 479.206,607.814 473.935,607.814C472.378,607.814 472.823,606.258 454.946,615.851L453.482,611.591C459.924,607.559 469.209,603.768 473.992,601.858C478.775,599.948 479.788,599.443 484.376,598.7C488.963,597.957 493.99,597.48 499.457,597.268L500.335,598.222C500.53,598.647 500.628,599.496 500.628,600.769C500.628,603.527 500.091,606.817 499.017,610.636C497.944,614.456 496.821,618.381 495.65,622.413C494.869,624.747 494.137,627.029 493.454,629.257C492.77,631.485 492.136,633.66 491.55,635.782C490.379,640.026 489.891,643.845 490.086,647.24ZM361.308,822.183C361.699,813.695 362.431,803.35 363.505,791.149C364.578,778.947 366.286,765.738 368.629,751.521C370.972,737.303 374.339,722.927 378.732,708.391C383.124,693.856 388.786,679.957 395.716,666.694C402.647,653.432 411.237,641.602 421.486,631.204C431.735,620.806 455.366,606.712 466.544,602.683C478.601,598.337 484.376,598.7 484.376,598.7L482.249,600.647C465.265,608.499 451.306,617.994 440.374,629.135C429.441,640.275 420.754,652.477 414.311,665.739C407.869,679.002 402.891,692.848 399.377,707.277C395.863,721.707 393.13,736.136 391.177,750.566C390.982,751.415 390.689,753.749 390.299,757.568C389.908,761.388 389.42,765.95 388.835,771.255C391.763,765.101 395.57,758.046 400.255,750.088C404.941,742.131 410.065,734.173 415.629,726.216C421.193,718.259 426.806,711.203 432.467,705.049C438.129,698.895 443.302,694.757 447.987,692.635C451.501,689.877 455.503,687.649 459.994,685.951C460.97,685.527 462.776,684.837 465.411,683.882C468.047,682.927 470.828,681.813 473.757,680.54C476.685,679.267 479.223,678.206 481.371,677.357C483.518,676.508 484.592,676.084 484.592,676.084L486.056,678.949L477.856,682.768C474.342,684.254 470.731,687.596 467.022,692.795C463.312,697.993 459.896,704.094 456.772,711.097C453.649,718.099 451.209,725.102 449.452,732.104C447.499,740.592 445.645,749.452 443.888,758.682C442.131,767.913 440.862,776.56 440.081,784.624C446.328,774.65 453.6,764.518 461.897,754.226C470.194,743.935 478.345,735.924 486.349,730.195L488.691,733.378C483.811,736.561 478.735,741.653 473.464,748.656C468.193,755.659 463.166,763.192 458.383,771.255C453.6,779.319 449.549,786.852 446.23,793.854C442.912,800.857 440.764,806.162 439.788,809.769L416.654,822.183C416.459,821.122 416.361,819.849 416.361,818.363L416.361,813.589C416.361,807.223 416.8,799.478 417.679,790.353C418.557,781.229 419.778,771.839 421.339,762.184C422.901,752.529 424.658,743.669 426.61,735.606C427.782,731.574 428.904,727.807 429.978,724.306C431.052,720.805 432.174,717.569 433.346,714.598C427.489,719.479 421.73,726.057 416.068,734.333C410.407,742.608 405.185,751.468 400.402,760.911C395.619,770.353 391.812,779.372 388.981,787.966C386.15,796.56 384.735,803.722 384.735,809.451L384.735,809.769C381.416,811.255 377.512,813.271 373.022,815.817C368.532,818.363 364.627,820.485 361.308,822.183Z" style="fill:rgb(10,45,51);fill-rule:nonzero;"/>
                        </g>
                        <g transform="matrix(1,0,0,1,16.615,-13.9034)">
                            <path d="M547.723,722.003L544.209,719.457C544.6,717.335 544.941,715.372 545.234,713.568C545.527,711.764 545.673,710.014 545.673,708.316C545.673,701.526 543.868,696.327 540.256,692.72C536.644,689.112 531.91,687.309 526.053,687.309C520.587,687.309 514.242,689.112 507.019,692.72L505.555,690.173C514.73,684.444 523.272,679.988 531.178,676.805C539.085,673.622 546.649,672.03 553.873,672.03L555.044,672.03C557.192,672.03 558.265,673.303 558.265,675.85C558.265,678.608 557.777,681.844 556.801,685.558C555.825,689.271 554.751,693.144 553.58,697.176C552.799,699.298 552.116,701.367 551.53,703.383C550.944,705.399 550.456,707.467 550.066,709.589C548.699,714.894 547.918,719.032 547.723,722.003ZM502.162,822.183C496.305,822.183 490.839,818.363 485.763,816.454C480.687,814.544 477.076,811.149 474.928,806.268C473.562,803.297 472.634,799.849 472.146,795.923C471.658,791.998 471.414,787.913 471.414,783.669C471.414,776.03 472.146,767.913 473.61,759.319C475.075,750.725 476.783,742.821 478.735,735.606C482.835,721.176 487.422,710.142 492.498,702.503C497.574,694.864 504.504,689.346 513.289,685.951C514.656,685.527 516.852,684.678 519.878,683.405C522.904,682.132 526.028,680.805 529.249,679.426C532.47,678.047 535.057,677.039 537.009,676.402L537.302,680.222L520.025,690.407C517.487,691.893 514.851,695.235 512.118,700.434C509.385,705.633 506.847,711.839 504.504,719.054C502.162,726.269 500.014,733.696 498.062,741.335L516.511,731.786C518.853,731.15 521.391,730.831 524.124,730.831C526.662,730.831 529.151,731.043 531.592,731.468C534.032,731.892 536.521,732.317 539.059,732.741C543.549,733.378 548.137,733.696 552.822,733.696C554.774,733.696 556.775,733.59 558.825,733.378C560.875,733.165 562.876,732.847 564.828,732.423L566,734.651L538.766,749.293C537.595,749.505 536.472,749.664 535.399,749.77C534.325,749.876 533.202,749.929 532.031,749.929C527.346,749.929 522.611,749.293 517.828,748.019C513.045,746.746 508.311,746.11 503.626,746.11L500.258,746.11C499.185,746.11 498.062,746.322 496.891,746.746C495.915,751.839 495.085,756.773 494.402,761.547C493.718,766.322 493.377,770.831 493.377,775.075C493.377,781.653 494.255,787.064 496.012,791.308C498.55,797.25 502.259,801.865 507.14,805.154C512.021,808.443 517.389,810.088 523.246,810.088C531.836,810.088 540.328,806.268 548.722,798.629C557.117,790.99 563.169,778.682 566.878,761.706L570.978,764.889C569.221,770.194 567.366,775.977 565.414,782.237C563.462,788.496 561.705,796.083 560.143,804.995C558.191,808.39 539.471,820.625 532.909,822.183C514.497,826.555 508.409,822.183 502.162,822.183Z" style="fill:rgb(10,45,51);fill-rule:nonzero;"/>
                        </g>
                        <g transform="matrix(1,0,0,1,-13.292,-8.45897)">
                            <path d="M631.595,818.682C626.714,818.682 622.078,817.992 617.685,816.613C613.293,815.233 609.827,812.74 607.289,809.133C605.923,807.011 603.922,803.987 601.286,800.061C598.651,796.136 597.333,792.369 597.333,788.762C597.333,786.215 597.919,784.199 599.09,782.714C601.823,778.894 604.019,775.393 605.679,772.21C607.338,769.027 609.046,765.154 610.803,760.592C612.56,756.03 614.708,749.929 617.246,742.29C618.222,739.956 619.003,737.409 619.588,734.651C620.174,731.892 621.345,731.043 623.102,732.104C623.883,732.529 623.883,734.598 623.102,738.311C622.322,742.025 621.736,745.367 621.345,748.338C621.15,749.399 621.053,750.46 621.053,751.521L621.053,754.704C621.053,765.314 623.054,774.12 627.056,781.122C631.058,788.125 636.231,793.271 642.576,796.56C648.921,799.849 655.705,801.494 662.928,801.494C670.932,801.494 678.79,799.531 686.501,795.605C694.213,791.679 700.704,785.897 705.975,778.258C711.246,770.619 714.272,761.388 715.053,750.566C715.443,743.563 714.174,738.046 711.246,734.014C708.317,729.983 704.315,727.012 699.24,725.102C694.164,723.192 688.551,721.919 682.402,721.282C676.252,720.646 670.151,720.115 664.099,719.691C649.653,718.63 638.72,714.227 631.302,706.481C623.883,698.736 620.467,690.301 621.053,681.177C621.638,670.991 625.25,661.654 631.888,653.166C638.525,644.678 646.822,637.252 656.778,630.886C666.735,624.52 677.277,619.639 688.405,616.244C699.532,612.849 709.977,611.151 719.738,611.151C727.352,611.151 734.087,612.318 739.944,614.652C745.8,616.987 750.095,620.594 752.828,625.474C755.561,630.567 756.928,634.811 756.928,638.206C756.928,640.328 756.44,642.397 755.464,644.413C754.488,646.429 753.023,648.71 751.071,651.257C748.729,654.652 746.728,657.517 745.068,659.851C743.409,662.185 741.749,664.997 740.09,668.286C738.431,671.575 736.332,676.084 733.794,681.813C732.818,684.148 731.744,685.315 730.573,685.315C729.792,685.315 729.401,684.572 729.401,683.087C729.401,681.813 729.792,680.434 730.573,678.949C732.33,672.795 733.208,667.384 733.208,662.715C733.208,654.864 731.403,648.233 727.791,642.822C724.179,637.411 719.543,633.273 713.881,630.408C708.22,627.543 702.168,626.111 695.725,626.111C689.088,626.111 682.694,627.65 676.545,630.726C670.395,633.803 665.222,638.578 661.025,645.05C656.827,651.522 654.338,659.745 653.557,669.718C653.167,675.66 654.338,680.434 657.071,684.041C659.804,687.649 663.465,690.407 668.053,692.317C672.64,694.227 677.423,695.606 682.402,696.455C687.38,697.304 692.016,697.781 696.311,697.887C700.606,697.993 703.73,698.153 705.682,698.365C721.495,699.001 732.281,702.131 738.04,707.755C743.799,713.378 746.484,720.115 746.093,727.967C745.312,739.001 741.749,749.876 735.405,760.592C729.06,771.308 720.616,781.069 710.074,789.876C699.532,798.682 687.526,805.685 674.056,810.883C660.585,816.082 646.432,818.682 631.595,818.682Z" style="fill:rgb(10,45,51);fill-rule:nonzero;"/>
                        </g>
                    </g>
                    <g transform="matrix(0.601865,0,0,0.601865,743.883,465.674)">
                        <g transform="matrix(1,0,0,1,4.98451,1.78288)">
                            <path d="M231.583,817.409C224.164,817.409 216.99,816.188 210.059,813.748C203.129,811.308 198.297,807.011 195.564,800.857C193.612,796.401 192.636,790.141 192.636,782.077C192.636,774.65 193.319,766.693 194.685,758.205C196.052,749.717 197.76,741.441 199.81,733.378C201.86,725.314 203.763,718.63 205.52,713.325C208.058,705.898 212.06,698.895 217.526,692.317C222.993,685.739 230.216,680.54 239.196,676.721C242.515,675.235 246.859,673.962 252.227,672.901C257.596,671.84 263.111,671.309 268.773,671.309C276.386,671.309 283.609,672.53 290.442,674.97C297.275,677.41 302.156,681.813 305.084,688.179C307.036,692.423 308.012,698.471 308.012,706.322C308.012,713.537 307.28,721.495 305.816,730.195C304.352,738.895 302.644,747.224 300.692,755.181C298.739,763.139 296.787,769.876 294.835,775.393C292.297,782.608 288.295,789.557 282.829,796.242C277.362,802.926 270.139,808.178 261.159,811.997C257.84,813.483 253.496,814.756 248.128,815.817C242.759,816.878 237.244,817.409 231.583,817.409ZM235.975,810.088C240.465,810.088 245.931,808.496 252.374,805.313C258.035,802.342 262.574,797.568 265.991,790.99C269.407,784.412 272.091,777.197 274.044,769.345C275.996,761.494 277.558,754.385 278.729,748.019C279.705,742.714 280.584,736.879 281.364,730.513C282.145,724.147 282.536,717.887 282.536,711.733C282.536,702.821 281.267,695.129 278.729,688.657C276.191,682.185 271.408,678.949 264.38,678.949C260.085,678.949 254.716,680.54 248.274,683.723C242.808,686.482 238.318,691.203 234.804,697.887C231.29,704.572 228.557,711.786 226.604,719.532C224.652,727.277 223.09,734.333 221.919,740.699C220.943,746.004 220.016,751.892 219.137,758.364C218.259,764.836 217.819,771.149 217.819,777.303C217.819,786.215 219.088,793.907 221.626,800.38C224.164,806.852 228.947,810.088 235.975,810.088Z" style="fill:rgb(10,45,51);fill-rule:nonzero;"/>
                        </g>
                        <g transform="matrix(1,0,0,1,11.6305,-5.85629)">
                            <path d="M298.935,825.048C302.253,814.013 305.474,802.342 308.598,790.035C311.722,777.727 314.504,765.579 316.944,753.59C319.384,741.6 321.239,730.354 322.508,719.85C323.777,709.346 324.216,700.381 323.825,692.954C321.873,693.803 319.091,695.235 315.48,697.251C311.868,699.267 309.184,700.593 307.427,701.23L309.184,694.864C312.307,693.59 316.212,691.681 320.897,689.134C325.582,686.588 330.365,683.776 335.246,680.699C340.127,677.622 344.324,674.811 347.838,672.264C348.228,673.538 348.424,675.235 348.424,677.357C348.424,682.238 347.789,689.399 346.52,698.842C345.251,708.285 343.641,718.683 341.688,730.036C339.736,741.388 337.637,752.741 335.392,764.093C333.147,775.446 330.951,785.473 328.804,794.173C338.76,786.321 347.008,777.674 353.548,768.231C360.088,758.789 365.652,748.656 370.24,737.834C374.827,727.012 379.171,715.659 383.271,703.776C386.004,695.925 389.567,689.771 393.959,685.315C398.352,680.858 403.672,677.463 409.919,675.129C410.895,674.705 412.701,674.015 415.336,673.06C417.972,672.105 420.754,670.991 423.682,669.718C426.61,668.445 429.148,667.384 431.296,666.535C433.443,665.686 434.517,665.262 434.517,665.262L435.688,669.081L427.782,672.901C421.925,675.66 416.752,681.336 412.262,689.93C407.771,698.524 403.965,708.603 400.841,720.168C397.717,731.733 395.277,743.616 393.52,755.818C391.763,768.019 390.787,779.213 390.592,789.398C393.13,784.73 396.497,779.425 400.695,773.483C404.892,767.542 409.382,761.653 414.165,755.818C418.948,749.982 423.633,744.783 428.221,740.221C432.809,735.659 436.664,732.317 439.788,730.195L441.838,733.378C435.591,738.47 429.734,744.677 424.268,751.998C418.801,759.319 413.921,766.799 409.626,774.438C405.331,782.077 401.768,789.027 398.938,795.287C396.107,801.547 394.203,806.268 393.227,809.451L369.8,822.183C369.215,820.91 368.922,817.409 368.922,811.679C368.922,807.011 369.117,801.547 369.508,795.287C369.898,789.027 370.337,782.82 370.825,776.666C371.313,770.513 371.85,765.208 372.436,760.751C373.022,756.295 373.51,753.537 373.9,752.476C370.191,757.781 365.798,763.616 360.723,769.982C355.647,776.348 350.522,782.449 345.349,788.284C340.175,794.12 335.636,799.212 331.732,803.563C327.828,807.913 325.094,810.724 323.533,811.997L298.935,825.048Z" style="fill:rgb(10,45,51);fill-rule:nonzero;"/>
                        </g>
                        <g transform="matrix(1,0,0,1,28.2456,-1.7098)">
                            <path d="M417.533,822.183C418.313,815.393 419.338,806.586 420.607,795.764C421.876,784.942 423.584,772.953 425.732,759.796C427.879,746.64 430.417,733.059 433.346,719.054C436.274,705.049 439.739,691.468 443.741,678.312C447.743,665.156 452.331,653.219 457.504,642.503C462.678,631.787 468.437,623.087 474.782,616.403C481.126,609.719 488.203,605.846 496.012,604.785C497.379,604.573 499.917,603.989 503.626,603.034C507.335,602.08 510.849,601.125 514.168,600.17C517.487,599.215 519.146,598.737 519.146,598.737L519.439,600.965L512.411,605.422C503.431,611.151 495.427,619.374 488.399,630.09C481.371,640.806 475.221,652.901 469.95,666.376C464.679,679.85 460.14,693.803 456.333,708.232C452.526,722.662 449.403,736.508 446.962,749.77C444.522,763.033 442.521,774.65 440.959,784.624C447.206,774.65 454.479,764.518 462.776,754.226C471.072,743.935 479.223,735.924 487.227,730.195L489.57,733.378C484.689,736.561 479.614,741.653 474.342,748.656C469.071,755.659 464.044,763.192 459.261,771.255C454.479,779.319 450.428,786.852 447.109,793.854C443.79,800.857 441.643,806.162 440.666,809.769L417.533,822.183ZM515.989,647.049L512.768,643.547C513.939,638.455 514.525,633.999 514.525,630.179C514.525,623.389 513.012,618.19 509.986,614.582C506.96,610.975 502.811,609.171 497.54,609.171C492.855,609.171 487.389,610.763 481.142,613.946L474.782,616.403C481.224,612.371 484.081,608.891 488.208,605.81C492.991,602.239 505.935,599.251 510.425,598.508C514.915,597.766 519.893,597.288 525.36,597.076L526.238,598.031C526.433,598.455 526.531,599.41 526.531,600.895C526.531,603.654 526.043,606.943 525.067,610.763C524.091,614.582 523.017,618.402 521.846,622.221C521.065,624.556 520.284,626.837 519.503,629.065C518.722,631.293 518.136,633.468 517.746,635.59C517.16,637.712 516.672,639.675 516.282,641.479C515.891,643.282 515.794,645.139 515.989,647.049Z" style="fill:rgb(10,45,51);fill-rule:nonzero;"/>
                        </g>
                    </g>
                </g>
                <g transform="matrix(1,0,0,1,-61.009,0)">
                    <text x="514px" y="1002px" style="font-family:'BBHSansBartle-Regular', 'BBH Sans Bartle';font-size:34.682px;fill:rgb(10,45,51);">Tr<tspan x="603.861px " y="1002px ">u</tspan>th &amp; Gra<tspan x="936.983px " y="1002px ">c</tspan>e</text>
                </g>
            </g>
        </g>
    </g>
</svg>
